<?xml version="1.0" standalone="no"?>
<!DOCTYPE svg PUBLIC "-//W3C//DTD SVG 20010904//EN"
 "http://www.w3.org/TR/2001/REC-SVG-20010904/DTD/svg10.dtd">
<svg version="1.0" xmlns="http://www.w3.org/2000/svg"
 width="58mm" height="40mm" viewBox="0 0 4724.000000 3543.000000"
 preserveAspectRatio="xMidYMid meet">

<g transform="translate(0.000000,3543.000000) scale(0.100000,-0.100000)"
fill="#000000" stroke="none">
<path d="M1441 35416 c-91 -30 -175 -106 -224 -202 -9 -17 -21 -61 -27 -97
-32 -179 70 -382 226 -454 46 -21 80 -27 188 -34 72 -5 165 -12 206 -15 l75
-6 -63 -28 c-34 -16 -86 -52 -117 -81 -93 -87 -139 -176 -154 -294 l-8 -60
-26 58 c-73 156 -100 209 -145 277 -85 130 -194 223 -345 296 -124 60 -371
133 -492 146 -28 3 -30 1 -27 -27 13 -121 86 -368 146 -492 73 -151 166 -260
296 -345 68 -45 121 -72 277 -145 l58 -26 -60 -8 c-118 -15 -207 -61 -294
-154 -29 -31 -65 -83 -81 -117 l-28 -63 -6 75 c-3 41 -10 135 -15 207 -7 115
-12 141 -37 190 -57 117 -179 202 -321 223 -174 27 -335 -55 -410 -208 -25
-50 -28 -68 -27 -147 0 -109 23 -165 92 -225 145 -129 362 -61 362 113 0 59
-11 82 -50 102 -44 23 -89 19 -133 -12 l-39 -27 -19 23 c-23 28 -24 50 -4 99
47 111 177 158 322 114 138 -42 169 -106 223 -452 34 -223 49 -282 92 -362 64
-120 155 -181 273 -182 126 -2 205 58 213 161 4 48 2 55 -26 83 -38 37 -79 40
-111 6 -33 -35 -26 -84 16 -112 l33 -22 -40 -16 c-55 -22 -96 -20 -155 8 -178
82 -205 337 -54 501 88 95 205 145 340 145 73 0 86 -3 158 -39 86 -44 214
-136 276 -200 l39 -41 -94 -95 -95 -95 88 -87 87 -88 78 78 c42 42 81 77 84
77 4 0 4 -76 1 -170 -5 -142 -3 -180 11 -232 28 -102 121 -208 147 -168 20 33
51 149 56 217 l6 73 77 -74 c87 -83 187 -146 287 -182 78 -27 103 -30 103 -10
0 33 -52 162 -91 228 -23 39 -75 106 -115 148 l-74 77 73 6 c68 5 184 36 217
56 40 26 -66 119 -168 147 -52 14 -90 16 -232 11 -94 -3 -170 -3 -170 1 0 3
35 42 77 84 l78 78 -88 87 -87 88 -95 -95 -95 -94 -41 39 c-64 62 -156 190
-200 276 -36 72 -39 85 -39 158 0 135 50 252 145 340 164 151 419 124 501 -54
28 -59 30 -100 8 -155 l-16 -40 -22 33 c-30 45 -84 50 -115 11 -29 -37 -26
-70 9 -106 28 -28 35 -30 83 -26 103 8 163 87 161 213 -1 117 -63 210 -184
274 -75 40 -171 64 -385 95 -313 47 -385 84 -427 219 -44 145 3 275 114 322
49 20 71 19 99 -4 l23 -19 -27 -39 c-31 -44 -35 -89 -12 -133 20 -39 43 -50
102 -50 174 0 242 217 113 362 -22 25 -61 56 -87 68 -61 28 -179 36 -242 16z"/>
<path d="M45592 35412 c-113 -41 -182 -134 -182 -245 0 -121 69 -197 179 -197
45 0 57 4 82 29 24 24 29 38 29 76 0 32 -6 55 -20 72 -28 35 -25 61 6 73 66
25 166 -38 200 -126 23 -61 15 -181 -16 -247 -45 -94 -133 -132 -404 -172
-303 -45 -419 -85 -494 -171 -56 -62 -75 -108 -80 -186 -8 -137 60 -228 171
-228 34 0 50 6 71 26 50 50 24 134 -42 134 -36 0 -72 -26 -72 -52 0 -35 -26
-3 -39 47 -18 73 9 146 78 208 60 54 104 70 196 71 101 1 176 -31 253 -107 95
-94 136 -191 137 -327 0 -77 -3 -91 -34 -150 -50 -96 -104 -173 -179 -251
l-65 -70 -91 90 c-50 50 -96 91 -101 91 -6 0 -48 -38 -95 -85 l-85 -85 84 -84
83 -83 -204 1 c-193 1 -206 0 -255 -23 -49 -22 -133 -98 -133 -120 0 -17 161
-63 237 -68 l72 -6 -53 -48 c-54 -49 -137 -161 -174 -234 -24 -49 -64 -176
-57 -183 10 -11 133 31 204 69 86 46 186 123 230 177 l30 37 1 -33 c0 -53 30
-183 53 -235 l22 -48 43 36 c91 79 117 181 104 405 -5 80 -7 147 -5 149 2 3
41 -32 86 -77 l82 -82 90 90 90 90 -95 95 -94 95 59 61 c63 63 182 148 275
194 51 26 60 27 155 23 88 -4 111 -9 169 -36 84 -39 177 -126 213 -199 18 -39
27 -76 31 -127 6 -102 -15 -164 -82 -232 -70 -72 -145 -91 -223 -59 l-37 16
31 18 c82 51 23 168 -67 131 -61 -25 -78 -118 -32 -179 88 -120 276 -117 399
5 83 84 117 184 162 485 31 205 53 282 100 346 51 71 185 108 291 83 111 -27
191 -144 150 -221 -14 -25 -29 -24 -70 6 -51 38 -103 34 -147 -10 -34 -34 -35
-38 -31 -90 9 -106 84 -170 199 -169 86 0 159 39 206 108 41 59 53 103 53 187
0 114 -52 213 -148 284 -68 50 -132 69 -227 69 -175 -1 -326 -93 -392 -242
-23 -51 -26 -77 -35 -237 -5 -99 -11 -187 -14 -195 -3 -9 -16 8 -34 45 -16 33
-45 79 -65 102 -74 87 -227 163 -328 163 -53 0 -44 8 83 63 126 56 242 125
310 185 111 97 203 250 268 447 39 115 88 325 80 343 -5 13 -160 -16 -285 -54
-377 -114 -545 -258 -694 -595 l-54 -122 -12 69 c-29 161 -123 290 -258 357
-28 13 -57 27 -65 30 -9 3 -5 6 10 7 14 0 106 7 206 14 208 15 257 31 343 111
122 114 167 329 99 476 -79 169 -273 259 -436 201z"/>
<path d="M5455 35006 c-210 -48 -417 -174 -649 -397 l-111 -105 -120 12 c-117
12 -465 12 -550 -1 -322 -47 -573 -159 -761 -337 -168 -160 -270 -349 -328
-608 -114 -513 10 -970 355 -1309 207 -204 458 -327 777 -382 109 -18 151 -20
297 -16 96 4 200 13 238 22 247 55 459 171 647 351 168 161 283 350 356 580
l35 112 82 54 c284 190 427 430 427 718 0 189 -55 352 -184 544 l-64 96 17720
0 c14173 0 17717 -3 17711 -12 -4 -7 -32 -49 -61 -93 -314 -471 -213 -953 265
-1263 40 -26 72 -53 73 -61 0 -32 73 -229 116 -313 67 -135 137 -231 249 -343
203 -203 450 -333 725 -381 128 -22 402 -14 542 15 290 62 524 186 718 381
306 306 434 697 374 1148 -81 617 -432 977 -1059 1087 -137 24 -413 30 -585
12 l-145 -15 -100 98 c-167 166 -293 257 -458 335 -136 64 -200 79 -347 79
-117 1 -129 -1 -185 -27 -33 -16 -71 -38 -83 -50 -108 -101 -72 -295 77 -415
138 -111 424 -205 736 -242 50 -6 106 -13 125 -15 37 -5 284 -25 306 -25 11 0
54 -67 54 -85 0 -3 -21 -5 -48 -5 -150 0 -335 -41 -471 -106 -278 -131 -486
-390 -546 -679 -18 -91 -21 -304 -4 -336 10 -19 4 -17 -50 11 -181 97 -341
301 -387 495 -23 98 -21 249 5 348 25 95 111 265 191 375 49 68 60 90 60 123
l0 39 -17797 -3 -17798 -2 -3 -36 c-2 -27 3 -44 21 -65 85 -103 180 -273 224
-401 23 -68 26 -94 27 -208 0 -152 -12 -202 -82 -340 -37 -72 -65 -108 -137
-181 -55 -56 -117 -107 -160 -132 -38 -22 -71 -39 -72 -38 -1 1 3 22 9 46 14
63 2 250 -23 345 -85 329 -356 603 -689 698 -88 26 -230 47 -312 47 -53 0 -55
4 -32 54 18 37 7 35 239 52 39 3 140 14 225 25 548 70 842 232 876 482 13 94
-57 194 -164 232 -63 23 -238 29 -317 11z m307 -97 c111 -24 147 -107 91 -211
-52 -95 -189 -160 -409 -193 -112 -17 -476 -26 -603 -16 l-64 6 65 60 c194
182 447 322 640 354 78 13 219 13 280 0z m36089 -23 c176 -52 355 -157 533
-313 l90 -78 -125 -8 c-153 -10 -424 -1 -544 17 -263 40 -403 118 -434 242
-21 84 6 132 90 160 71 23 282 12 390 -20z m-37307 -658 c-22 -71 -35 -81
-134 -103 -339 -76 -562 -228 -675 -459 -72 -146 -88 -222 -89 -416 -1 -154 1
-170 26 -245 76 -225 232 -376 458 -446 133 -42 380 -27 380 22 0 10 -3 20 -7
22 -5 3 -53 1 -107 -4 -128 -12 -229 5 -342 60 -164 78 -304 250 -344 421 -41
176 17 429 135 590 86 117 238 236 398 310 92 43 224 87 232 78 3 -3 -2 -46
-11 -94 -26 -131 -24 -333 4 -447 82 -332 301 -566 607 -648 107 -29 286 -29
398 -1 42 10 77 16 77 11 0 -17 -54 -157 -82 -214 -136 -274 -405 -513 -712
-635 -265 -105 -600 -119 -881 -36 -466 137 -811 498 -901 945 -23 115 -15
371 14 483 61 226 173 391 355 519 219 155 510 240 982 288 249 25 228 25 219
-1z m38411 -3 c530 -56 853 -173 1066 -384 155 -154 235 -335 260 -588 35
-337 -87 -666 -338 -918 -273 -274 -623 -408 -1023 -392 -88 4 -179 14 -230
26 -387 89 -734 350 -902 677 -42 81 -103 233 -96 239 2 2 37 -6 78 -16 149
-39 323 -30 478 24 267 93 469 341 534 657 17 79 19 118 14 230 -3 74 -12 167
-20 205 -8 39 -12 72 -10 74 9 9 181 -52 271 -97 309 -151 490 -404 509 -712
7 -113 -9 -198 -57 -292 -128 -254 -370 -387 -651 -358 -51 5 -93 8 -94 7 -1
-1 -4 -12 -8 -23 -6 -19 0 -23 41 -35 68 -20 242 -17 323 5 124 34 207 83 300
176 69 68 94 102 127 170 94 192 106 388 37 628 -90 310 -328 508 -719 595
l-109 24 -23 52 -23 53 57 -6 c32 -3 126 -13 208 -21z m-38047 -174 c309 -77
554 -318 648 -638 39 -135 42 -420 3 -443 -7 -5 -50 -19 -94 -32 -100 -28
-264 -30 -370 -4 -267 64 -484 282 -565 566 -26 93 -37 294 -21 395 16 104 39
173 59 178 43 12 261 -3 340 -22z m37765 20 c67 -26 93 -371 42 -566 -8 -33
-35 -100 -59 -150 -117 -244 -307 -387 -573 -432 -112 -19 -226 -10 -345 27
l-66 20 -7 58 c-24 190 6 384 82 536 150 298 376 459 713 510 52 7 190 6 213
-3z"/>
<path d="M1977 32480 c-135 -15 -297 -55 -416 -103 -402 -163 -644 -503 -717
-1007 -15 -106 -22 -439 -11 -495 3 -11 8 -57 12 -102 l7 -83 -97 -102 c-316
-334 -450 -622 -413 -888 30 -216 176 -308 352 -221 73 36 156 118 203 202 97
173 168 467 199 824 3 39 7 84 9 100 2 17 4 59 4 96 l1 65 44 21 44 22 6 -52
c3 -29 8 -83 12 -122 14 -156 82 -349 165 -473 137 -201 361 -360 584 -413 92
-22 302 -31 353 -15 l23 8 -25 -50 c-75 -148 -237 -292 -406 -361 -131 -53
-307 -62 -445 -22 -97 28 -275 120 -370 191 -65 48 -87 60 -117 60 l-38 0 0
-11850 0 -11849 39 3 c28 2 56 16 99 50 130 100 283 177 417 211 84 21 232 21
321 0 201 -46 410 -212 507 -400 l15 -30 -162 -1 c-175 0 -223 -9 -355 -64
-109 -45 -226 -127 -321 -227 -182 -188 -263 -374 -290 -659 -6 -65 -12 -119
-13 -120 -1 -2 -21 6 -45 16 l-42 19 0 58 c0 82 -8 173 -31 358 -58 475 -187
775 -373 869 -105 53 -198 48 -268 -14 -54 -47 -83 -109 -96 -206 -36 -260
102 -558 404 -873 l106 -111 -7 -82 c-4 -46 -9 -86 -12 -90 -9 -16 -4 -397 7
-483 29 -238 105 -457 216 -625 173 -263 442 -428 809 -497 131 -25 440 -24
553 0 636 140 1059 674 1077 1362 10 375 -112 693 -369 963 -166 174 -343 284
-578 360 l-118 37 -56 82 c-216 316 -504 466 -817 424 -155 -21 -291 -76 -449
-182 l-88 -59 0 11765 0 11765 78 -53 c113 -80 179 -113 299 -154 227 -76 456
-52 661 68 81 48 258 227 322 327 29 45 60 82 68 82 34 0 232 74 323 121 362
186 621 529 705 934 27 134 25 381 -4 540 -41 214 -115 400 -225 565 -67 100
-262 293 -362 359 -150 98 -311 164 -478 196 -102 20 -313 27 -430 15z m477
-80 c222 -51 398 -152 572 -325 151 -151 258 -325 323 -528 48 -150 64 -261
64 -437 1 -228 -38 -392 -140 -595 -131 -261 -331 -470 -563 -589 -86 -44
-229 -100 -237 -92 -2 2 3 30 12 62 25 91 31 273 11 367 -34 164 -103 295
-215 408 -226 225 -559 315 -910 244 -41 -8 -76 -13 -78 -11 -6 6 49 163 87
243 161 345 426 533 755 537 91 1 123 -3 184 -23 150 -49 310 -187 376 -326
54 -112 68 -189 61 -332 -5 -106 -4 -122 11 -127 24 -10 32 3 47 75 25 123 -6
322 -70 439 -134 247 -427 388 -730 351 -441 -54 -696 -314 -794 -813 -6 -31
-16 -58 -23 -61 -7 -3 -29 -13 -51 -22 l-39 -16 7 93 c11 156 46 416 72 543
97 465 300 758 611 884 194 79 453 99 657 51z m-684 -1531 c207 -31 416 -158
536 -325 120 -168 163 -402 113 -614 -30 -131 -20 -124 -206 -128 -137 -3
-170 -1 -243 18 -342 87 -603 353 -671 684 -23 111 -26 308 -6 325 19 15 119
39 202 48 84 10 173 7 275 -8z m-900 -549 c1 -226 -2 -267 -26 -420 -28 -168
-86 -300 -158 -355 -39 -30 -114 -50 -150 -41 -62 15 -95 84 -100 212 -10 262
103 528 342 801 l76 87 8 -34 c4 -19 8 -132 8 -250z m-218 -24416 c104 -53
180 -229 207 -482 12 -108 13 -516 2 -566 l-6 -29 -59 64 c-172 185 -297 404
-341 599 -20 87 -23 257 -5 329 12 51 49 96 85 103 29 6 86 -3 117 -18z m1688
-282 l44 -7 25 -75 c22 -65 25 -93 25 -215 1 -103 -4 -157 -16 -205 -67 -249
-275 -457 -540 -538 -104 -32 -256 -46 -371 -34 -117 13 -214 39 -222 60 -3 9
-6 60 -6 114 0 143 26 270 79 386 118 261 405 476 687 515 50 7 247 6 295 -1z
m350 -112 c158 -80 287 -180 393 -307 249 -300 363 -652 328 -1013 -35 -348
-167 -630 -403 -856 -214 -205 -458 -315 -732 -330 -195 -11 -360 19 -521 95
-319 152 -502 454 -589 976 -10 55 -19 111 -21 125 -13 71 -37 381 -31 387 13
13 95 -35 100 -59 72 -325 135 -461 285 -608 102 -101 168 -141 299 -186 330
-113 660 -42 862 183 118 133 186 361 159 536 -13 77 -27 106 -50 100 -18 -5
-18 -13 -12 -122 11 -218 -40 -356 -186 -501 -145 -144 -277 -197 -466 -186
-216 12 -380 89 -530 247 -107 113 -190 252 -247 414 -39 108 -42 129 -22 121
54 -21 238 -38 354 -33 148 6 248 30 369 87 391 187 557 557 446 992 l-7 28
68 -24 c38 -13 107 -42 154 -66z"/>
<path d="M44932 32480 c-503 -63 -921 -401 -1095 -885 -54 -152 -103 -453 -92
-570 2 -22 6 -74 9 -115 34 -429 348 -868 758 -1060 83 -39 256 -100 283 -100
8 0 42 -42 77 -92 201 -296 460 -441 758 -425 175 9 341 71 515 191 l80 55 3
-11761 c1 -6469 0 -11763 -2 -11765 -2 -2 -40 21 -85 52 -101 70 -245 139
-347 166 -108 29 -301 31 -394 5 -184 -53 -329 -152 -456 -310 -36 -45 -79
-104 -97 -133 -28 -47 -36 -53 -82 -64 -140 -33 -347 -130 -470 -221 -160
-118 -321 -311 -414 -497 -173 -343 -180 -768 -20 -1176 68 -176 174 -330 324
-474 267 -254 583 -372 965 -358 384 14 685 131 901 349 282 285 409 748 356
1298 l-15 155 75 75 c152 150 272 308 343 450 147 292 126 607 -47 691 -36 17
-57 21 -107 17 -249 -20 -419 -330 -491 -893 -14 -115 -35 -352 -35 -401 0
-18 -11 -29 -41 -44 -23 -12 -42 -20 -43 -18 -2 2 -8 59 -14 128 -26 284 -115
484 -297 665 -187 188 -412 284 -665 285 -58 0 -120 -4 -138 -9 l-33 -10 31
58 c89 166 255 304 447 372 75 27 257 37 345 19 131 -25 323 -119 452 -221 54
-43 118 -54 130 -23 3 9 6 5339 6 11845 l0 11829 -41 0 c-32 0 -52 -9 -97 -43
-129 -99 -305 -188 -427 -218 -28 -7 -99 -12 -160 -13 -119 0 -208 20 -310 71
-130 65 -263 189 -335 313 -21 36 -37 66 -36 67 1 1 28 -2 61 -7 189 -27 429
30 599 141 243 160 401 396 450 673 16 90 25 172 26 228 l0 37 38 -15 c20 -9
40 -19 44 -22 4 -4 9 -52 13 -107 41 -649 181 -1069 393 -1179 156 -81 292
-35 353 120 32 84 33 255 1 368 -58 203 -179 392 -393 611 l-98 100 14 135
c16 166 12 464 -8 580 -59 334 -171 565 -365 752 -171 165 -381 264 -662 312
-116 20 -339 28 -438 16z m323 -75 c107 -20 181 -46 274 -96 342 -184 521
-560 585 -1229 9 -91 18 -184 21 -207 2 -24 2 -43 -1 -43 -3 0 -26 11 -53 25
-48 24 -49 25 -61 92 -7 37 -27 113 -45 169 -58 177 -129 297 -237 400 -138
133 -292 200 -513 225 -368 41 -693 -167 -782 -501 -32 -119 -18 -370 20 -370
32 1 35 14 25 105 -30 258 87 491 319 630 162 98 360 108 575 28 193 -72 372
-250 478 -476 40 -86 96 -244 89 -251 -2 -2 -40 3 -84 11 -48 10 -141 16 -235
17 -131 0 -168 -3 -240 -22 -281 -75 -508 -265 -599 -502 -64 -166 -76 -344
-32 -507 l19 -73 -27 7 c-49 11 -176 64 -241 100 -282 157 -512 443 -618 768
-83 253 -83 564 -1 830 120 389 425 712 789 835 164 56 390 70 575 35z m506
-1530 c37 -3 96 -14 132 -25 l65 -20 7 -64 c12 -111 -12 -275 -60 -401 -100
-267 -354 -482 -650 -550 -66 -16 -281 -21 -352 -9 -41 6 -43 8 -63 68 -98
291 -1 628 235 816 134 106 291 171 456 188 75 7 110 7 230 -3z m821 -502 c97
-135 164 -272 204 -423 26 -95 26 -321 0 -370 -28 -53 -45 -69 -83 -76 -52
-10 -110 12 -163 62 -79 74 -128 211 -155 434 -13 109 -17 414 -7 545 l4 60
72 -77 c40 -42 97 -112 128 -155z m144 -24458 c26 -11 40 -27 57 -62 19 -42
22 -64 21 -183 -1 -165 -21 -246 -98 -405 -63 -128 -130 -228 -241 -356 l-80
-93 -8 100 c-13 160 -1 481 23 612 44 243 118 362 245 393 44 10 42 10 81 -6z
m-1510 -296 c346 -61 636 -324 719 -654 27 -105 40 -259 28 -324 -8 -42 -10
-45 -61 -62 -111 -38 -309 -46 -453 -19 -198 38 -394 160 -505 316 -141 198
-178 437 -104 677 l20 66 43 4 c93 8 257 6 313 -4z m-459 -96 c-14 -58 -19
-112 -20 -208 0 -113 4 -142 27 -220 70 -231 216 -400 441 -510 134 -65 224
-86 390 -92 107 -3 165 0 248 15 81 14 107 15 107 6 0 -7 -14 -52 -31 -101
-120 -341 -323 -556 -609 -644 -100 -31 -296 -34 -380 -5 -160 54 -307 180
-379 326 -57 117 -77 228 -64 353 9 79 8 94 -5 105 -25 20 -29 15 -47 -53 -14
-50 -17 -87 -12 -162 18 -306 196 -530 497 -625 105 -32 313 -33 444 0 258 65
449 223 558 462 36 77 85 234 99 314 11 67 12 68 56 87 59 25 64 24 59 -8 -2
-16 -7 -68 -11 -118 -9 -130 -42 -362 -71 -500 -126 -600 -441 -912 -952 -941
-280 -16 -522 59 -751 231 -331 249 -520 638 -522 1070 -1 230 40 407 142 609
128 252 327 462 556 583 63 34 223 100 249 103 1 0 -8 -35 -19 -77z"/>
<path d="M4110 3555 c-349 -50 -624 -186 -851 -422 -346 -359 -449 -851 -293
-1391 117 -404 433 -690 879 -796 183 -43 491 -57 748 -33 l107 10 114 -110
c295 -287 544 -410 812 -401 104 3 116 5 180 38 96 49 129 97 129 188 -1 198
-186 353 -528 442 -122 32 -302 65 -412 75 -38 4 -77 8 -85 10 -8 2 -71 7
-140 10 -69 4 -133 9 -143 12 -19 5 -52 68 -43 82 3 4 31 8 63 10 369 12 673
179 863 473 117 181 172 420 141 611 -4 26 -5 47 -2 47 13 0 129 -75 175 -114
126 -105 230 -279 262 -435 41 -206 -12 -410 -167 -641 -41 -62 -66 -90 -80
-90 -16 0 -19 -7 -19 -40 l0 -40 17800 0 17800 0 0 40 c0 32 -4 40 -18 40 -23
0 -128 157 -178 264 -92 200 -103 395 -33 581 60 161 184 305 345 404 62 38
68 38 59 4 -3 -15 -6 -79 -6 -142 0 -183 53 -356 152 -503 51 -76 163 -194
241 -254 160 -124 379 -197 616 -206 39 -1 71 -5 70 -8 -2 -3 -10 -22 -18 -42
-16 -44 -17 -44 -185 -53 -356 -20 -693 -92 -892 -192 -237 -119 -337 -351
-208 -483 59 -60 121 -82 246 -88 268 -11 520 112 832 408 l107 102 93 -9
c173 -15 531 -10 647 10 427 75 749 297 918 632 37 74 82 217 109 344 34 164
39 444 10 581 -58 271 -181 497 -372 685 -213 209 -439 319 -790 386 -108 21
-400 18 -505 -5 -179 -39 -320 -98 -466 -194 -278 -184 -474 -452 -566 -770
l-23 -80 -80 -53 c-106 -72 -244 -205 -301 -291 -97 -146 -134 -277 -129 -458
5 -173 55 -322 168 -497 l47 -73 -17689 0 -17689 0 45 67 c129 193 181 371
170 581 -6 112 -21 178 -65 271 -71 154 -209 302 -388 416 -30 20 -56 41 -58
48 -79 285 -184 475 -366 657 -311 313 -718 448 -1160 385z m321 -76 c305 -39
576 -174 800 -398 114 -113 196 -229 253 -353 36 -81 70 -177 64 -183 -2 -2
-31 3 -63 13 -45 12 -99 17 -215 17 -148 -1 -159 -2 -247 -32 -106 -37 -174
-74 -255 -138 -130 -102 -252 -303 -299 -490 -28 -113 -30 -312 -5 -454 9 -51
16 -95 14 -97 -8 -7 -190 60 -274 102 -326 163 -508 433 -506 751 0 46 8 110
16 144 49 191 212 366 406 437 69 25 86 27 230 27 145 0 155 2 155 19 0 43
-161 65 -295 41 -265 -48 -447 -204 -537 -460 -27 -76 -28 -88 -27 -250 1
-155 3 -178 28 -259 67 -220 176 -363 368 -478 99 -61 241 -110 438 -152 18
-4 32 -19 48 -52 13 -25 21 -49 18 -52 -8 -7 -344 26 -486 49 -683 111 -1016
382 -1095 894 -10 64 -7 264 5 338 57 357 314 695 666 874 243 124 533 176
795 142z m38799 -14 c284 -54 501 -167 701 -365 249 -247 364 -521 354 -850
-12 -404 -187 -680 -545 -860 -194 -98 -551 -174 -964 -206 l-89 -7 29 53 29
53 86 18 c407 83 666 307 749 649 26 105 33 279 15 375 -61 335 -330 565 -665
569 -89 1 -184 -16 -195 -34 -3 -5 -2 -15 1 -23 5 -13 25 -15 132 -10 148 7
213 -6 332 -64 105 -51 232 -178 284 -283 49 -102 70 -202 62 -310 -20 -301
-198 -550 -502 -703 -65 -33 -274 -111 -279 -105 -2 2 4 37 12 78 23 108 23
373 1 468 -36 154 -116 304 -222 419 -114 123 -238 195 -404 234 -72 18 -108
20 -212 16 -70 -2 -151 -12 -184 -21 -32 -9 -60 -15 -62 -13 -8 8 38 126 86
222 120 241 323 439 596 579 106 55 270 110 374 125 41 6 86 13 100 15 51 9
298 -3 380 -19z m-37845 -960 c22 -3 73 -15 113 -27 88 -26 86 -20 86 -218 0
-208 -40 -343 -147 -502 -145 -217 -344 -351 -582 -393 -92 -16 -271 -20 -292
-7 -58 37 -82 381 -38 552 25 97 106 256 169 333 169 202 422 298 691 262z
m36724 -5 c141 -25 265 -87 367 -183 164 -153 248 -334 268 -582 6 -64 -12
-241 -30 -306 -11 -38 -24 -64 -37 -71 -13 -7 -65 -9 -146 -5 -145 6 -249 30
-360 82 -249 118 -438 361 -497 638 -16 75 -19 270 -6 342 7 38 10 41 62 59
120 40 252 49 379 26z m-36923 -1561 c442 -5 693 -116 694 -307 0 -86 -73
-122 -250 -122 -217 0 -416 74 -635 235 -90 66 -215 177 -210 185 2 4 53 8
112 9 59 1 110 4 112 6 2 3 7 3 11 0 4 -2 78 -5 166 -6z m37258 -8 c16 -6 8
-17 -55 -73 -173 -153 -355 -263 -519 -311 -111 -33 -156 -40 -265 -39 -111 0
-166 14 -208 52 -28 25 -32 34 -31 77 2 148 146 242 441 287 96 14 604 20 637
7z"/>
<path d="M2076 2651 c-40 -27 -83 -94 -103 -160 -13 -47 -15 -86 -10 -236 l6
-179 -84 84 -85 85 -85 -85 c-47 -47 -85 -89 -85 -95 0 -6 40 -51 90 -100 l90
-89 -48 -49 c-110 -112 -290 -222 -382 -233 -124 -14 -279 46 -370 142 -75 79
-104 149 -105 249 0 97 22 153 85 214 72 70 185 88 243 40 22 -18 22 -18 1
-19 -50 0 -73 -81 -34 -120 50 -50 140 1 140 80 0 103 -89 173 -218 172 -157
-1 -276 -124 -326 -337 -9 -38 -28 -146 -41 -240 -30 -196 -38 -232 -70 -296
-47 -91 -135 -139 -257 -139 -72 0 -121 20 -171 68 -56 54 -71 139 -31 173 11
9 22 6 52 -15 54 -37 113 -36 153 3 59 60 29 187 -57 237 -92 54 -240 19 -311
-75 -157 -206 2 -525 273 -548 183 -15 351 73 425 222 28 57 32 78 40 197 5
73 12 166 15 206 l6 73 34 -72 c64 -132 201 -233 354 -259 39 -7 70 -13 68
-15 -2 -1 -57 -26 -123 -56 -274 -123 -425 -268 -525 -506 -42 -100 -98 -293
-114 -390 l-13 -84 41 6 c145 23 394 99 500 152 201 101 325 241 437 493 29
63 56 119 60 125 5 5 9 -8 9 -32 0 -153 137 -346 285 -402 l50 -19 -35 -6
c-19 -3 -111 -10 -203 -15 -159 -8 -172 -10 -232 -40 -123 -61 -204 -175 -225
-317 -27 -174 45 -325 192 -405 60 -32 68 -34 163 -34 92 0 104 2 154 30 153
85 187 308 60 392 -46 30 -117 41 -159 23 -62 -26 -78 -108 -34 -172 30 -42
27 -64 -11 -74 -80 -20 -181 57 -205 156 -15 63 -7 146 21 209 27 61 44 78
109 111 69 34 114 45 287 70 273 40 365 66 458 130 97 66 151 195 127 302 -20
89 -93 158 -167 158 -94 0 -143 -121 -63 -154 41 -17 83 -4 103 33 l14 26 15
-37 c33 -77 13 -152 -60 -225 -40 -40 -64 -55 -109 -69 -129 -37 -262 3 -361
108 -86 91 -124 189 -124 320 0 65 5 88 26 131 44 86 107 177 179 260 l68 78
99 -98 98 -98 85 85 c47 46 85 89 85 95 0 5 -35 44 -77 87 -42 43 -75 79 -72
82 2 2 66 1 142 -4 167 -9 250 -1 322 35 53 26 115 84 115 108 0 19 -111 56
-210 69 l-88 12 60 58 c99 98 193 261 213 372 7 37 7 37 -21 30 -145 -34 -293
-121 -393 -229 -23 -25 -43 -45 -45 -45 -2 0 -6 33 -9 73 -4 40 -18 107 -32
148 -14 41 -25 75 -25 77 0 7 -18 0 -44 -17z"/>
<path d="M45121 2653 c-19 -38 -49 -152 -56 -216 l-7 -67 -78 74 c-42 40 -109
92 -148 115 -66 39 -227 100 -237 90 -8 -9 23 -108 54 -176 41 -86 105 -175
174 -240 l56 -53 -35 0 c-85 0 -274 -55 -274 -80 0 -19 82 -92 125 -111 23
-10 73 -23 111 -28 64 -10 103 -9 289 5 l70 5 -85 -86 -85 -85 90 -90 90 -90
95 95 96 95 50 -52 c119 -124 219 -286 230 -374 21 -175 -88 -379 -243 -452
-50 -23 -71 -27 -148 -27 -81 0 -95 3 -144 30 -67 37 -107 85 -127 152 -15 52
-14 69 8 126 11 28 28 37 28 14 0 -23 38 -50 70 -50 71 0 95 80 40 135 -28 28
-36 30 -80 26 -100 -10 -160 -91 -160 -214 0 -85 21 -135 84 -202 81 -86 188
-125 470 -167 265 -40 322 -58 384 -117 73 -72 95 -227 46 -327 -45 -90 -149
-138 -203 -93 l-22 17 26 34 c34 48 35 118 1 158 -22 25 -30 28 -89 28 -58 0
-70 -4 -104 -31 -53 -42 -73 -86 -73 -159 0 -112 73 -214 178 -249 65 -23 169
-20 237 5 77 29 156 104 197 187 31 62 33 74 33 167 0 115 -22 187 -80 267
-85 116 -181 154 -415 163 -201 8 -206 10 -130 46 131 62 234 202 262 356 l13
73 48 -109 c155 -350 325 -497 705 -610 89 -26 245 -61 274 -61 33 0 -66 365
-143 527 -106 223 -244 341 -558 478 l-74 33 54 7 c168 23 312 124 379 267 17
35 31 55 34 47 3 -8 9 -96 14 -196 9 -172 11 -185 40 -247 53 -114 147 -187
285 -222 175 -45 356 32 443 188 27 49 29 61 29 158 0 122 -15 160 -85 224
-55 50 -97 66 -169 66 -95 0 -144 -27 -182 -102 -33 -64 -18 -152 30 -178 37
-19 105 -12 141 15 40 30 35 29 54 9 43 -43 1 -150 -78 -198 -99 -62 -264 -43
-342 39 -57 59 -78 127 -119 388 -19 120 -46 250 -59 289 -59 169 -168 259
-313 259 -112 0 -198 -61 -210 -149 -16 -116 128 -175 161 -66 9 30 -13 73
-41 80 -34 9 -28 20 22 39 75 29 164 0 228 -76 123 -143 74 -379 -104 -502
-81 -55 -158 -79 -259 -80 -81 -1 -89 1 -165 40 -90 46 -173 105 -258 183
l-58 53 98 99 98 98 -85 85 c-46 47 -89 85 -95 85 -5 0 -47 -37 -93 -82 l-83
-83 5 40 c12 97 15 275 5 335 -12 77 -51 152 -98 191 -41 34 -47 35 -60 12z"/>
</g>
</svg>
