<?xml version="1.0" standalone="no"?>
<!DOCTYPE svg PUBLIC "-//W3C//DTD SVG 20010904//EN"
 "http://www.w3.org/TR/2001/REC-SVG-20010904/DTD/svg10.dtd">
<svg version="1.0" xmlns="http://www.w3.org/2000/svg"
 width="880.000000pt" height="880.000000pt" viewBox="0 0 880.000000 880.000000"
 preserveAspectRatio="xMidYMid meet">

<g transform="translate(0.000000,880.000000) scale(0.100000,-0.100000)"
fill="#000000" stroke="none">
<path d="M788 8132 c-39 -5 -78 -55 -78 -99 0 -32 11 -47 97 -135 l97 -99 93
94 c51 52 95 107 99 122 10 40 -19 93 -60 110 -40 17 -72 10 -107 -22 -25 -23
-26 -23 -43 -4 -22 24 -62 38 -98 33z"/>
<path d="M1568 8132 c-43 -5 -78 -48 -78 -96 0 -39 6 -47 95 -136 l95 -95 95
95 c88 88 95 97 95 134 0 87 -99 129 -162 69 l-28 -27 -27 26 c-33 29 -48 35
-85 30z"/>
<path d="M2323 8125 c-40 -17 -69 -71 -59 -109 3 -14 48 -69 99 -122 l92 -96
98 100 c85 87 97 103 97 134 0 92 -106 132 -176 67 -20 -18 -22 -19 -35 -3
-11 14 -70 45 -81 44 -2 -1 -18 -7 -35 -15z"/>
<path d="M3113 8133 c-35 -7 -73 -59 -73 -100 0 -32 11 -47 97 -135 l98 -99
92 93 c52 54 95 105 99 122 10 41 -18 94 -60 111 -40 17 -72 10 -107 -22 -24
-22 -27 -23 -40 -7 -12 15 -73 47 -81 43 -2 -1 -13 -4 -25 -6z"/>
<path d="M3900 8132 c-44 -7 -80 -50 -80 -97 0 -38 6 -46 95 -135 l95 -95 96
96 c87 88 96 100 96 134 0 28 -7 45 -30 67 -40 41 -92 41 -133 2 l-29 -28 -27
26 c-33 29 -49 35 -83 30z"/>
<path d="M4653 8125 c-41 -18 -67 -66 -57 -108 7 -33 166 -207 189 -207 6 0
53 42 103 94 82 83 92 97 92 129 0 44 -42 95 -80 98 -46 3 -58 -1 -88 -26 -27
-23 -31 -23 -43 -8 -11 13 -70 44 -81 43 -2 -1 -17 -7 -35 -15z"/>
<path d="M5434 8126 c-41 -18 -64 -52 -64 -95 0 -29 12 -46 92 -127 50 -52 97
-94 103 -94 14 0 168 157 184 189 16 29 7 83 -18 105 -43 39 -114 36 -150 -7
-12 -15 -16 -15 -43 8 -16 14 -33 25 -38 25 -5 0 -14 2 -22 5 -7 2 -27 -2 -44
-9z"/>
<path d="M6220 8132 c-8 -2 -27 -16 -42 -30 -22 -20 -28 -35 -28 -65 0 -37 7
-47 95 -136 l95 -96 96 97 c81 80 97 102 97 127 0 44 -21 78 -60 96 -40 19
-67 13 -106 -24 l-28 -26 -18 23 c-17 24 -74 42 -101 34z"/>
<path d="M7179 8128 c-13 -5 -33 -18 -45 -29 -20 -19 -21 -19 -44 6 -25 27
-84 34 -121 15 -28 -15 -51 -67 -44 -99 5 -26 174 -211 192 -211 5 0 51 42
101 94 81 82 92 97 92 129 0 68 -69 118 -131 95z"/>
<path d="M7773 8133 c-12 -2 -34 -18 -49 -36 -22 -26 -25 -38 -21 -71 5 -33
20 -53 99 -133 l93 -94 92 93 c101 103 115 131 89 185 -30 62 -107 74 -161 23
-21 -19 -23 -20 -36 -4 -12 15 -73 47 -81 43 -2 -1 -13 -4 -25 -6z"/>
<path d="M1192 8036 c-84 -85 -92 -97 -92 -132 0 -96 117 -134 180 -59 12 14
16 13 39 -8 36 -34 64 -40 106 -23 40 17 70 72 59 109 -6 20 -181 207 -194
207 -4 0 -48 -42 -98 -94z"/>
<path d="M1973 8038 c-51 -51 -95 -105 -98 -119 -14 -59 55 -127 114 -114 16
3 39 17 51 30 l23 24 28 -24 c39 -32 63 -38 102 -26 39 13 67 56 67 101 0 28
-14 47 -92 126 -50 52 -94 94 -98 94 -3 0 -47 -42 -97 -92z"/>
<path d="M2753 8048 c-44 -46 -86 -93 -92 -105 -18 -36 -13 -71 18 -105 39
-44 98 -46 138 -5 l27 27 29 -27 c42 -41 99 -39 138 5 31 34 36 69 18 105 -14
27 -173 187 -186 187 -4 0 -45 -37 -90 -82z"/>
<path d="M3522 8036 c-85 -86 -92 -96 -92 -133 0 -30 7 -47 26 -66 46 -47 88
-47 142 -2 l29 24 23 -24 c31 -33 71 -40 110 -20 36 19 64 75 54 108 -6 20
-181 207 -194 207 -4 0 -48 -42 -98 -94z"/>
<path d="M4303 8038 c-51 -51 -95 -105 -98 -119 -14 -57 56 -128 112 -114 14
3 38 15 53 27 l28 20 31 -23 c47 -34 96 -31 132 9 21 23 29 43 29 69 0 32 -10
46 -92 129 -50 52 -94 94 -98 94 -3 0 -47 -42 -97 -92z"/>
<path d="M5085 8048 c-44 -45 -85 -91 -92 -102 -21 -35 -15 -73 16 -108 39
-44 96 -46 139 -5 26 25 30 26 42 12 43 -52 112 -54 155 -3 27 32 32 66 14
101 -15 29 -171 187 -184 186 -5 0 -46 -37 -90 -81z"/>
<path d="M5852 8036 c-81 -82 -92 -97 -92 -129 0 -44 38 -93 80 -102 30 -7 61
5 96 36 20 19 21 19 43 -5 13 -14 36 -28 52 -31 59 -13 128 55 114 114 -5 23
-180 211 -195 211 -4 0 -48 -42 -98 -94z"/>
<path d="M6634 8038 c-51 -51 -94 -104 -97 -117 -9 -35 17 -87 52 -105 41 -22
60 -20 103 9 l37 25 38 -26 c46 -31 83 -27 125 13 21 20 28 36 28 66 0 37 -7
47 -92 133 -50 52 -94 94 -98 94 -3 0 -46 -42 -96 -92z"/>
<path d="M7422 8053 c-100 -99 -116 -123 -108 -166 15 -79 107 -109 164 -54
26 25 30 26 42 12 24 -28 70 -47 100 -40 41 9 80 58 80 101 0 30 -12 47 -91
129 -51 52 -96 95 -100 95 -4 0 -44 -35 -87 -77z"/>
<path d="M696 7671 c-38 -39 -39 -87 -3 -134 l26 -34 -23 -22 c-32 -30 -38
-68 -18 -110 17 -38 69 -65 105 -55 13 3 66 48 118 100 l94 95 -96 94 c-89 88
-99 95 -136 95 -30 0 -46 -7 -67 -29z"/>
<path d="M7897 7602 l-97 -97 87 -87 c49 -48 99 -91 114 -96 37 -15 76 -3 104
30 33 39 33 87 -1 127 l-26 31 26 31 c36 43 35 91 -3 130 -22 22 -39 29 -68
29 -35 0 -46 -8 -136 -98z"/>
<path d="M761 7215 l-96 -95 96 -95 c87 -86 100 -95 133 -95 48 0 72 13 92 51
18 35 13 69 -17 111 l-20 28 20 28 c30 42 35 76 17 111 -20 38 -44 51 -92 51
-33 0 -46 -9 -133 -95z"/>
<path d="M7835 7288 c-39 -34 -43 -84 -11 -131 l26 -38 -26 -35 c-52 -67 -8
-154 78 -154 38 0 47 6 137 95 l96 95 -96 95 c-90 89 -99 95 -137 95 -28 0
-49 -7 -67 -22z"/>
<path d="M722 6915 c-61 -26 -75 -110 -26 -156 l23 -22 -26 -34 c-36 -47 -35
-95 3 -134 21 -22 37 -29 67 -29 37 0 47 7 133 92 52 50 94 95 94 99 0 13
-175 181 -198 190 -29 11 -30 11 -70 -6z"/>
<path d="M7995 6916 c-16 -8 -67 -52 -113 -98 l-82 -84 98 -97 c90 -88 103
-97 136 -97 84 0 127 101 70 161 l-27 28 27 31 c35 43 35 90 -1 129 -34 37
-68 45 -108 27z"/>
<path d="M766 6440 l-101 -100 97 -95 c85 -83 101 -95 132 -95 43 0 92 39 101
80 7 30 -5 61 -36 96 -19 20 -19 21 5 43 50 47 38 124 -24 156 -53 27 -68 20
-174 -85z"/>
<path d="M7864 6531 c-31 -14 -64 -60 -64 -91 0 -15 11 -44 25 -64 l25 -38
-25 -30 c-40 -47 -28 -116 26 -144 61 -31 86 -19 198 94 l84 84 -94 94 c-97
96 -129 114 -175 95z"/>
<path d="M720 6137 c-14 -7 -33 -29 -43 -49 -16 -32 -16 -40 -4 -70 8 -18 21
-39 31 -47 16 -13 15 -15 -3 -35 -67 -71 -29 -171 65 -171 42 0 48 4 139 95
l95 95 -83 83 c-110 111 -141 127 -197 99z"/>
<path d="M7898 6053 l-98 -97 92 -93 c51 -52 103 -96 116 -99 91 -24 160 90
98 163 l-24 28 24 30 c55 69 7 165 -82 165 -21 0 -50 -23 -126 -97z"/>
<path d="M765 5669 c-52 -51 -95 -95 -95 -99 0 -3 41 -47 91 -98 103 -102 130
-115 182 -85 62 37 71 102 21 154 -22 23 -23 27 -9 39 28 24 47 70 40 100 -9
41 -58 80 -101 80 -30 0 -47 -12 -129 -91z"/>
<path d="M7851 5746 c-53 -30 -66 -97 -26 -144 14 -17 25 -33 25 -37 0 -4 -11
-20 -25 -37 -34 -40 -32 -80 4 -120 24 -27 36 -33 70 -33 39 0 47 6 136 95
l95 95 -88 88 c-48 48 -94 92 -102 97 -21 14 -61 12 -89 -4z"/>
<path d="M701 5343 c-43 -40 -45 -100 -5 -140 l25 -25 -26 -28 c-29 -30 -36
-81 -16 -117 14 -28 75 -55 105 -47 21 5 196 171 204 192 1 4 -40 49 -91 100
-84 82 -98 92 -130 92 -26 0 -45 -8 -66 -27z"/>
<path d="M7898 5273 l-98 -97 82 -84 c117 -118 158 -132 221 -74 37 35 37 88
1 131 l-26 31 26 31 c36 43 35 91 -3 130 -22 22 -39 29 -67 29 -33 0 -46 -9
-136 -97z"/>
<path d="M761 4885 l-96 -94 90 -91 c54 -55 102 -94 120 -99 57 -15 104 18
121 83 5 20 -1 37 -21 65 l-26 39 27 41 c25 38 26 45 15 81 -14 48 -43 70 -95
70 -36 0 -47 -7 -135 -95z"/>
<path d="M7829 4951 c-38 -39 -39 -87 -3 -130 l26 -31 -27 -32 c-62 -73 7
-182 100 -157 18 5 66 44 120 99 l90 91 -96 94 c-91 90 -98 95 -138 95 -34 0
-49 -6 -72 -29z"/>
<path d="M721 4583 c-60 -30 -73 -104 -26 -152 l24 -24 -26 -34 c-54 -70 -13
-163 70 -163 37 0 47 7 136 95 l96 95 -95 94 c-52 52 -106 97 -120 100 -14 4
-40 -1 -59 -11z"/>
<path d="M8000 4589 c-14 -5 -64 -49 -113 -97 l-87 -87 97 -97 c90 -90 101
-98 136 -98 29 0 46 7 68 29 38 39 39 87 3 130 l-26 31 26 31 c35 42 35 89 -1
128 -32 35 -67 45 -103 30z"/>
<path d="M865 4200 c-11 -4 -60 -49 -110 -99 l-90 -92 96 -94 c85 -84 100 -95
132 -95 68 0 125 77 96 132 -6 13 -20 32 -30 44 -19 20 -19 21 5 43 49 47 42
116 -16 151 -36 21 -52 23 -83 10z"/>
<path d="M7864 4201 c-30 -13 -64 -59 -64 -87 0 -26 20 -74 31 -74 20 0 17
-35 -6 -62 -68 -80 25 -195 118 -147 12 7 60 50 105 97 l84 85 -94 93 c-96 96
-128 114 -174 95z"/>
<path d="M720 3807 c-14 -7 -33 -29 -43 -49 -16 -32 -16 -40 -4 -70 8 -18 21
-39 31 -47 16 -13 15 -15 -3 -35 -65 -70 -25 -176 67 -176 30 0 46 11 128 92
52 50 94 97 94 103 0 13 -158 169 -187 184 -28 14 -52 14 -83 -2z"/>
<path d="M7995 3810 c-11 -4 -59 -48 -108 -97 l-87 -89 98 -97 c88 -86 103
-97 135 -97 83 0 126 98 73 165 l-24 30 24 28 c67 80 -16 197 -111 157z"/>
<path d="M762 3335 l-97 -95 102 -101 c100 -99 104 -102 140 -96 83 14 117
105 60 164 l-27 29 27 27 c41 40 39 99 -5 138 -23 20 -43 29 -68 29 -31 0 -47
-11 -132 -95z"/>
<path d="M7834 3396 c-42 -42 -45 -82 -9 -124 14 -17 25 -33 25 -37 0 -4 -11
-20 -25 -37 -14 -17 -25 -42 -25 -59 0 -41 46 -88 93 -96 37 -6 40 -4 139 95
57 55 100 102 98 104 -3 2 -48 45 -101 96 -113 108 -137 116 -195 58z"/>
<path d="M701 3013 c-27 -26 -35 -49 -32 -95 1 -9 12 -30 26 -46 l24 -29 -23
-22 c-70 -66 -2 -188 91 -165 24 6 203 177 203 194 0 3 -42 48 -94 98 -83 82
-97 92 -129 92 -26 0 -45 -8 -66 -27z"/>
<path d="M7898 2943 l-98 -97 82 -84 c117 -118 158 -132 221 -74 37 35 37 88
1 131 l-26 31 26 31 c36 43 35 91 -3 130 -22 22 -39 29 -67 29 -33 0 -46 -9
-136 -97z"/>
<path d="M761 2555 l-96 -94 95 -96 c87 -87 98 -95 133 -95 49 0 73 13 93 51
18 35 13 69 -17 111 l-20 28 20 25 c30 39 36 81 15 113 -26 40 -45 51 -88 52
-36 0 -46 -7 -135 -95z"/>
<path d="M7829 2621 c-38 -38 -39 -87 -4 -129 l25 -30 -25 -38 c-14 -20 -25
-49 -25 -64 0 -34 32 -75 67 -87 49 -17 84 2 178 97 l90 91 -96 94 c-91 90
-98 95 -138 95 -34 0 -49 -6 -72 -29z"/>
<path d="M745 2262 c-76 -16 -104 -106 -50 -162 l24 -25 -25 -33 c-55 -69 -15
-162 69 -162 37 0 47 7 136 95 l96 94 -94 95 c-91 91 -115 106 -156 98z"/>
<path d="M7995 2255 c-16 -7 -67 -51 -113 -97 l-83 -85 98 -96 c89 -89 100
-97 136 -97 29 0 46 7 68 29 38 39 39 87 3 130 l-26 31 26 31 c35 42 35 89 -1
128 -34 36 -68 44 -108 26z"/>
<path d="M865 1870 c-11 -4 -60 -49 -110 -99 l-90 -92 96 -94 c85 -84 100 -95
132 -95 68 0 125 77 96 132 -6 13 -20 32 -30 44 -19 20 -19 21 5 43 50 47 38
124 -24 156 -32 17 -46 18 -75 5z"/>
<path d="M7864 1871 c-31 -14 -64 -60 -64 -91 0 -15 11 -44 25 -64 l25 -38
-25 -30 c-29 -34 -32 -66 -10 -108 19 -36 43 -50 90 -50 32 0 47 10 133 95
l97 94 -95 95 c-98 98 -130 116 -176 97z"/>
<path d="M720 1477 c-14 -7 -33 -29 -43 -49 -16 -32 -16 -40 -4 -70 8 -18 21
-39 31 -47 16 -13 15 -15 -3 -35 -46 -49 -43 -117 7 -156 21 -17 36 -21 66
-17 33 5 53 20 128 94 48 48 88 92 88 98 0 14 -158 169 -187 184 -28 14 -52
14 -83 -2z"/>
<path d="M7995 1480 c-11 -4 -59 -48 -108 -97 l-87 -89 98 -97 c106 -104 124
-112 182 -82 56 29 67 98 26 150 l-24 30 24 28 c67 80 -16 197 -111 157z"/>
<path d="M807 902 c-88 -90 -97 -103 -97 -136 0 -28 7 -45 29 -67 39 -38 87
-39 130 -3 l31 26 31 -26 c47 -40 98 -36 138 9 53 61 41 91 -81 213 l-84 82
-97 -98z"/>
<path d="M1148 984 c-35 -18 -48 -43 -48 -89 0 -32 10 -47 95 -133 l94 -97 87
85 c102 101 121 134 100 184 -28 68 -87 84 -150 41 l-38 -25 -30 25 c-33 28
-70 31 -110 9z"/>
<path d="M1583 903 c-88 -90 -93 -96 -93 -138 0 -36 5 -48 31 -69 19 -17 43
-26 64 -26 21 0 45 9 64 26 l31 26 31 -26 c19 -17 43 -26 64 -26 21 0 45 9 64
26 26 21 31 33 31 68 0 40 -5 48 -95 139 -52 53 -96 97 -97 96 -2 0 -45 -43
-95 -96z"/>
<path d="M1922 984 c-12 -8 -29 -29 -38 -45 -24 -47 -5 -83 97 -184 l90 -90
94 97 c85 86 95 101 95 133 0 47 -14 71 -50 90 -42 22 -74 19 -108 -10 l-30
-25 -38 25 c-42 29 -80 32 -112 9z"/>
<path d="M2363 908 c-97 -99 -113 -130 -93 -178 26 -63 105 -80 160 -34 l31
27 28 -27 c60 -57 161 -14 161 70 0 34 -9 46 -98 136 l-97 99 -92 -93z"/>
<path d="M2684 966 c-58 -58 -51 -82 63 -198 l98 -99 97 99 c115 116 122 140
64 198 -42 42 -82 45 -124 9 -17 -14 -33 -25 -37 -25 -4 0 -20 11 -37 25 -42
36 -82 33 -124 -9z"/>
<path d="M3137 902 c-88 -90 -97 -103 -97 -136 0 -50 44 -96 92 -96 31 0 74
21 90 44 3 5 20 -2 38 -17 80 -67 199 8 161 101 -7 16 -51 67 -99 115 l-88 87
-97 -98z"/>
<path d="M3478 984 c-35 -18 -48 -43 -48 -89 0 -32 10 -47 95 -133 l94 -97 86
85 c48 47 93 98 101 113 20 38 10 80 -28 112 -38 32 -75 32 -122 0 l-38 -25
-30 25 c-33 28 -70 31 -110 9z"/>
<path d="M3913 905 c-87 -88 -93 -97 -93 -135 0 -87 93 -130 159 -74 l31 26
31 -26 c42 -35 89 -35 128 2 29 26 35 42 32 90 -1 14 -35 58 -92 117 -51 52
-95 95 -98 95 -3 0 -48 -43 -98 -95z"/>
<path d="M4252 984 c-12 -8 -29 -29 -38 -45 -24 -47 -5 -83 97 -184 l90 -90
94 97 c85 86 95 101 95 133 0 47 -14 71 -52 91 -37 19 -83 13 -114 -17 l-21
-20 -38 25 c-43 30 -81 33 -113 10z"/>
<path d="M4693 908 c-50 -52 -95 -106 -98 -120 -4 -16 0 -40 10 -61 29 -61
101 -75 154 -31 l31 26 31 -26 c43 -36 91 -35 130 3 22 22 29 39 29 67 0 34
-9 46 -98 136 l-97 99 -92 -93z"/>
<path d="M5014 966 c-58 -58 -51 -82 63 -198 l98 -99 97 99 c102 103 111 122
87 175 -13 29 -58 57 -92 57 -14 0 -39 -11 -55 -25 -17 -14 -33 -25 -37 -25
-4 0 -20 11 -37 25 -42 36 -82 33 -124 -9z"/>
<path d="M5466 900 l-99 -100 6 -42 c11 -83 93 -115 156 -62 l31 26 31 -26
c72 -61 182 -3 165 88 -4 22 -33 58 -99 124 l-93 92 -98 -100z"/>
<path d="M5808 984 c-35 -18 -48 -43 -48 -88 0 -32 11 -47 95 -133 l96 -97 97
97 c91 91 97 99 97 138 0 34 -6 46 -33 70 -40 36 -77 37 -126 4 l-38 -25 -30
25 c-33 28 -70 31 -110 9z"/>
<path d="M6247 902 c-89 -89 -97 -101 -97 -135 0 -29 7 -46 29 -68 39 -38 87
-39 130 -3 l31 26 31 -26 c40 -34 88 -34 127 -1 36 30 45 70 26 110 -8 17 -51
68 -97 113 l-82 82 -98 -98z"/>
<path d="M6581 984 c-13 -9 -29 -32 -37 -50 -21 -50 -2 -83 100 -184 l87 -85
94 96 c89 90 95 99 95 137 0 55 -31 91 -86 99 -33 4 -45 1 -71 -21 l-31 -26
-38 25 c-43 29 -80 32 -113 9z"/>
<path d="M7023 908 c-50 -52 -95 -106 -98 -120 -4 -16 0 -40 10 -61 29 -61
101 -75 154 -31 l31 26 31 -26 c43 -36 91 -35 130 3 22 22 29 39 29 67 0 34
-9 46 -98 136 l-97 99 -92 -93z"/>
<path d="M7344 966 c-58 -58 -51 -82 63 -198 l98 -99 97 99 c106 107 114 126
81 182 -31 54 -94 65 -141 25 -17 -14 -33 -25 -37 -25 -4 0 -20 11 -37 25 -42
36 -82 33 -124 -9z"/>
<path d="M7796 900 l-99 -100 6 -42 c11 -83 103 -119 160 -62 l26 26 32 -26
c53 -45 127 -30 159 33 23 46 5 81 -93 179 l-93 92 -98 -100z"/>
</g>
</svg>
