<?xml version="1.0" standalone="no"?>
<!DOCTYPE svg PUBLIC "-//W3C//DTD SVG 20010904//EN"
 "http://www.w3.org/TR/2001/REC-SVG-20010904/DTD/svg10.dtd">
<svg version="1.0" xmlns="http://www.w3.org/2000/svg"
 width="1600.000000pt" height="1221.000000pt" viewBox="0 0 1600.000000 1221.000000"
 preserveAspectRatio="xMidYMid meet">

<g transform="translate(0.000000,1221.000000) scale(0.100000,-0.100000)"
fill="#000000" stroke="none">
<path d="M1040 12084 c0 -2 31 -34 69 -72 51 -52 74 -83 91 -128 45 -118 34
-275 -27 -369 -54 -85 -142 -144 -213 -145 l-35 0 33 20 c40 25 68 69 76 122
6 34 2 52 -21 97 -76 152 -285 137 -360 -25 -53 -116 -18 -265 82 -353 69 -60
162 -91 257 -86 l43 3 -38 -19 c-143 -74 -353 -59 -511 36 -32 19 -62 35 -67
35 -5 0 -9 -28 -10 -62 -1 -35 -4 -87 -7 -116 l-7 -52 -50 34 c-27 18 -70 52
-94 75 -24 23 -46 40 -49 36 -9 -8 -10 -176 -17 -1895 -4 -855 -8 -1607 -10
-1670 -15 -470 -22 -6220 -8 -6243 2 -4 26 12 52 36 43 40 123 97 136 97 3 0
5 -52 5 -115 0 -77 4 -115 11 -115 6 0 23 9 39 20 79 57 196 90 317 90 75 0
105 -5 160 -25 86 -33 94 -41 35 -37 -93 6 -215 -50 -282 -131 -57 -70 -78
-222 -41 -302 67 -147 255 -180 346 -61 53 69 40 185 -26 241 -30 25 -30 25
-7 25 66 0 175 -84 216 -167 54 -107 55 -262 3 -368 -29 -58 -99 -136 -146
-162 -11 -7 -18 -14 -15 -16 3 -3 271 -7 595 -11 325 -3 741 -8 925 -11 184
-3 560 -7 835 -10 470 -5 822 -7 2665 -20 410 -3 966 -8 1235 -10 1694 -18
2430 -25 3045 -30 382 -3 862 -7 1065 -10 204 -3 638 -7 965 -10 327 -3 696
-7 820 -10 124 -3 599 -8 1055 -11 l830 -7 -67 62 c-48 44 -77 81 -100 129
-31 63 -33 72 -33 177 0 98 3 116 27 167 47 101 139 174 232 185 l41 5 -31
-20 c-95 -61 -107 -189 -24 -272 56 -56 138 -74 208 -44 50 21 89 59 119 118
22 44 25 59 21 131 -3 65 -10 91 -33 134 -56 101 -157 164 -290 180 l-60 7 60
24 c51 21 76 25 170 25 81 0 124 -5 165 -19 66 -23 166 -72 175 -86 3 -5 13
-10 21 -10 11 0 14 21 14 109 0 61 4 112 8 115 12 7 105 -57 154 -106 22 -22
41 -38 43 -36 4 4 13 1554 20 3368 3 784 7 1535 10 1670 7 346 8 4780 1 4787
-3 3 -17 -8 -31 -25 -26 -31 -139 -112 -156 -112 -5 0 -9 52 -9 115 0 63 -3
115 -6 115 -3 0 -31 -15 -62 -34 -101 -61 -172 -80 -302 -80 -96 0 -124 4
-172 23 -32 12 -60 25 -62 29 -2 4 21 7 52 7 91 1 162 28 227 87 31 28 63 65
72 82 20 38 43 122 43 157 0 51 -31 130 -68 171 -67 74 -149 95 -227 59 -129
-60 -155 -208 -51 -299 42 -37 28 -42 -43 -17 -175 61 -263 314 -177 508 23
53 123 167 156 179 63 22 -65 25 -1600 33 -624 3 -1439 10 -1810 15 -371 5
-1091 12 -1600 15 -509 3 -1042 7 -1185 10 -329 6 -1399 13 -3065 21 -718 3
-1323 7 -1345 9 -22 2 -220 6 -440 10 -220 4 -413 8 -430 10 -16 3 -583 7
-1260 10 -676 4 -1238 8 -1247 10 -10 2 -18 1 -18 -1z m2455 -105 c352 -5 694
-12 760 -14 66 -3 640 -7 1275 -10 1290 -6 2737 -16 2790 -20 19 -1 494 -5
1055 -9 1150 -7 1992 -14 2610 -21 231 -3 845 -10 1365 -15 520 -5 1051 -12
1180 -15 129 -3 268 -5 307 -5 l73 0 -34 -62 c-99 -181 -86 -372 33 -500 81
-89 213 -124 289 -78 39 24 45 60 8 53 -58 -12 -126 59 -126 132 0 137 178
189 278 81 97 -105 66 -289 -63 -378 -53 -37 -154 -62 -214 -53 -58 8 -146 40
-183 66 -48 35 -33 -2 25 -60 137 -137 370 -185 559 -115 94 34 88 39 88 -69
l0 -96 -42 -12 c-73 -19 -80 -20 -188 -20 -81 -1 -121 4 -175 21 -231 72 -396
235 -466 460 -32 100 -34 281 -5 383 10 37 17 69 15 72 -3 2 -351 7 -774 9
-728 5 -1203 10 -2130 21 -220 3 -794 7 -1275 10 -1163 7 -2059 14 -2365 20
-137 3 -889 8 -1670 10 -1462 5 -2316 12 -2465 20 -130 7 -655 14 -1500 20
-421 3 -854 7 -964 10 l-198 5 5 -28 c4 -15 14 -61 23 -102 20 -93 14 -210
-17 -312 -71 -240 -247 -408 -493 -470 -97 -25 -271 -21 -348 7 l-48 17 0 95
c0 86 2 95 17 90 10 -4 56 -18 103 -32 198 -61 405 -16 546 119 57 55 57 75 1
42 -225 -132 -497 -6 -497 230 0 60 4 77 29 115 39 62 91 93 156 93 91 0 155
-60 155 -144 0 -69 -63 -130 -135 -130 -32 0 -32 -10 0 -40 19 -18 40 -25 84
-28 197 -14 356 211 312 440 -7 35 -28 95 -47 135 -19 39 -34 74 -34 77 0 7
1567 -3 2315 -15z m-855 -204 c487 -3 1040 -11 1230 -16 190 -5 939 -12 1665
-14 726 -3 1725 -9 2220 -15 1134 -13 1810 -18 2920 -25 484 -3 968 -8 1075
-10 107 -2 569 -7 1025 -10 457 -3 1055 -8 1331 -11 l501 -7 -13 -56 c-21 -87
-18 -263 6 -357 86 -334 370 -571 709 -591 68 -3 118 0 171 11 41 9 79 16 84
16 4 0 6 -71 4 -157 -3 -140 -6 -163 -26 -201 -24 -46 -67 -72 -118 -72 l-26
0 26 31 c90 107 -4 256 -148 235 -97 -15 -166 -99 -166 -206 0 -126 92 -220
216 -220 40 0 45 -2 38 -17 -18 -41 -15 -108 6 -141 26 -42 97 -75 152 -70
l41 3 -3 -2265 c-1 -1246 -4 -2299 -6 -2340 -2 -41 -4 -543 -6 -1115 -2 -572
-4 -1232 -6 -1467 l-2 -426 -58 1 c-68 2 -119 -24 -147 -76 -17 -33 -18 -90
-1 -129 7 -15 3 -18 -29 -18 -64 0 -123 -21 -160 -57 -52 -50 -69 -89 -69
-158 -1 -75 31 -136 92 -179 86 -61 208 -33 248 56 21 47 14 98 -21 144 l-26
34 26 0 c15 0 43 -8 62 -17 58 -27 75 -80 81 -250 3 -78 2 -148 -1 -156 -5
-13 -12 -13 -59 0 -33 9 -99 15 -173 15 -101 0 -134 -4 -210 -26 -279 -84
-479 -293 -546 -571 -18 -75 -20 -110 -16 -210 2 -66 9 -132 15 -147 8 -20 8
-29 0 -34 -6 -4 -236 -4 -512 0 -478 6 -688 8 -2211 21 -363 3 -815 7 -1005
10 -190 3 -671 7 -1070 10 -399 3 -1164 10 -1700 15 -536 5 -1285 12 -1665 15
-379 3 -928 7 -1220 10 -291 3 -872 7 -1290 10 -418 3 -926 7 -1130 10 -203 3
-579 7 -835 11 -256 3 -472 7 -481 10 -15 4 -15 10 -2 67 23 95 13 270 -20
372 -34 103 -107 228 -180 310 -165 184 -439 282 -678 243 -52 -8 -96 -13 -98
-11 -11 9 -5 291 7 324 18 52 62 90 113 96 l42 6 -27 -36 c-35 -45 -44 -103
-22 -144 55 -108 203 -121 286 -26 41 46 52 76 52 144 1 117 -79 200 -206 215
-49 6 -54 9 -46 25 14 26 12 86 -4 117 -32 61 -101 95 -174 84 l-32 -4 0 308
c0 170 4 563 10 874 5 311 11 1411 15 2445 3 1034 7 1981 10 2105 3 124 8 600
11 1057 l6 833 38 -6 c51 -8 100 9 141 52 29 30 34 42 34 82 0 26 -4 57 -8 70
-8 21 -6 22 40 22 72 0 140 37 182 100 30 44 34 58 34 110 -1 120 -77 209
-185 217 -146 11 -222 -138 -125 -244 l20 -23 -34 0 c-44 0 -93 31 -116 72
-15 27 -18 63 -21 202 -4 160 -3 168 15 162 49 -20 140 -28 258 -23 115 4 140
8 219 37 106 39 210 107 288 187 100 102 145 175 195 320 24 70 27 92 27 218
0 77 -5 157 -11 177 l-11 37 131 3 c73 2 137 2 142 1 6 -1 408 -4 895 -8z
m-2324 -860 l81 -50 6 -140 c8 -205 45 -288 152 -340 60 -30 114 -30 143 -1
12 12 12 15 -6 25 -28 15 -62 73 -62 105 0 71 61 122 137 113 148 -16 182
-249 49 -335 -35 -23 -52 -27 -118 -27 -43 0 -78 -3 -78 -6 0 -4 7 -12 16 -19
25 -22 46 -82 39 -117 -14 -74 -109 -97 -182 -44 -22 16 -49 41 -60 55 -12 14
-23 26 -25 26 -3 0 -8 -456 -12 -1012 -3 -557 -9 -1283 -11 -1613 -3 -330 -7
-1241 -10 -2025 -2 -784 -7 -1838 -11 -2343 -4 -504 -4 -917 1 -917 4 0 29 20
55 44 30 28 61 47 84 51 109 21 164 -96 88 -186 l-27 -32 45 6 c135 18 240
-67 240 -195 -1 -129 -117 -209 -211 -145 -67 45 -69 127 -5 186 34 32 33 37
-8 51 -45 15 -95 5 -149 -30 -81 -51 -116 -160 -117 -367 0 -68 -3 -93 -12
-93 -7 0 -44 -20 -83 -44 -69 -44 -70 -44 -79 -23 -4 12 -5 704 -1 1567 11
2303 12 2571 19 4240 4 844 9 1544 11 1555 2 11 4 496 4 1078 1 582 4 1057 9
1055 4 -1 43 -25 88 -53z m15520 -798 c-3 -386 -8 -1721 -11 -2967 -3 -1246
-8 -2458 -10 -2695 -2 -236 -5 -1013 -6 -1725 -1 -712 -4 -1325 -7 -1362 l-4
-68 -47 34 c-25 18 -65 43 -87 54 l-42 21 -4 148 c-3 133 -6 153 -29 204 -46
97 -136 159 -216 146 -54 -9 -63 -23 -31 -50 44 -37 62 -84 49 -127 -22 -75
-97 -108 -169 -76 -117 53 -124 248 -11 323 38 25 52 28 121 28 43 0 78 3 78
8 0 4 -4 7 -10 7 -15 0 -50 76 -50 110 0 21 9 41 29 61 53 52 136 33 208 -49
l33 -37 1 120 c4 249 6 646 12 2605 4 1108 10 2729 13 3603 4 873 3 1587 0
1587 -4 0 -20 -15 -36 -34 -37 -42 -86 -66 -135 -66 -45 0 -95 47 -95 88 0 30
37 112 51 112 5 0 9 3 9 8 0 4 -33 7 -74 7 -66 0 -79 3 -117 30 -55 38 -79 80
-85 147 -4 43 -1 62 18 97 32 62 68 86 128 86 40 0 54 -5 79 -29 55 -53 50
-121 -11 -178 -32 -29 -32 -30 -13 -45 31 -23 115 -12 165 21 51 33 95 102
109 167 6 28 11 96 11 152 0 56 3 111 6 122 3 12 34 37 75 60 39 22 75 45 81
52 6 7 14 10 20 7 5 -4 7 -275 4 -707z m-14991 -8627 c228 -65 410 -249 481
-485 25 -84 25 -278 0 -359 -15 -49 -16 -60 -5 -67 8 -5 176 -9 374 -10 198
-1 369 -3 380 -4 11 -1 245 -5 520 -9 484 -6 964 -10 2765 -21 470 -3 945 -7
1055 -10 110 -3 605 -7 1100 -11 495 -3 1004 -7 1130 -9 127 -2 597 -6 1045
-10 448 -3 1254 -10 1790 -15 1125 -11 1859 -18 2634 -26 l549 -5 -7 23 c-70
247 -30 477 113 654 96 120 240 210 383 240 53 12 105 14 188 11 132 -6 186
-20 194 -51 8 -30 7 -149 -2 -162 -5 -9 -32 -4 -94 17 -92 31 -204 40 -298 25
-67 -11 -200 -79 -258 -131 -70 -63 -69 -83 2 -46 195 103 418 30 476 -156 33
-109 1 -212 -83 -264 -108 -65 -247 0 -247 116 0 74 61 135 135 135 34 0 32
13 -7 45 -30 25 -37 27 -103 22 -83 -5 -146 -37 -201 -100 -114 -131 -125
-317 -29 -493 l33 -62 -331 4 c-183 2 -771 6 -1307 9 -536 3 -1081 7 -1210 10
-129 3 -730 7 -1335 10 -605 3 -1251 7 -1435 10 -472 7 -2205 23 -3225 30
-473 3 -889 8 -925 10 -36 3 -546 7 -1135 11 -588 3 -1086 8 -1105 9 -19 1
-354 5 -745 9 -390 4 -774 9 -852 12 l-142 6 34 62 c98 180 85 370 -35 500
-88 96 -234 128 -302 68 -29 -25 -22 -42 18 -42 77 0 136 -86 115 -167 -18
-66 -71 -103 -148 -103 -59 0 -116 33 -153 88 -34 52 -40 161 -12 224 28 64
76 113 139 145 48 23 69 27 139 27 75 0 89 -3 159 -38 42 -21 79 -35 83 -32
10 11 -93 102 -158 140 -94 55 -195 80 -300 73 -73 -5 -155 -24 -223 -52 -16
-7 -18 0 -15 91 l3 98 30 8 c113 31 246 31 360 -2z"/>
</g>
</svg>
