<?xml version="1.0" standalone="no"?>
<!DOCTYPE svg PUBLIC "-//W3C//DTD SVG 20010904//EN"
 "http://www.w3.org/TR/2001/REC-SVG-20010904/DTD/svg10.dtd">
<svg version="1.0" xmlns="http://www.w3.org/2000/svg"
 width="2400.000000pt" height="1208.000000pt" viewBox="0 0 2400.000000 1208.000000"
 preserveAspectRatio="xMidYMid meet">

<g transform="translate(0.000000,1208.000000) scale(0.100000,-0.100000)"
fill="#000000" stroke="none">
<path d="M2272 11924 c-59 -752 -341 -1313 -851 -1697 -331 -250 -791 -448
-1350 -582 l-74 -18 6 -586 c4 -322 16 -1952 28 -3621 12 -1669 24 -3038 28
-3042 3 -3 62 -16 131 -27 371 -63 730 -188 1003 -351 618 -368 982 -965 1106
-1814 11 -76 22 -140 23 -141 2 -2 2447 -8 5433 -14 2987 -7 7122 -16 9190
-21 2068 -5 3956 -10 4196 -10 l436 0 12 63 c23 119 83 343 127 480 316 967
936 1577 1879 1848 77 22 196 51 265 65 69 14 126 27 127 28 1 1 6 1614 9
3583 l7 3582 -24 5 c-13 2 -64 10 -114 16 -244 31 -538 103 -748 184 -815 315
-1254 930 -1478 2072 -12 61 -24 116 -28 122 -5 8 -2552 14 -8731 21 -4799 6
-9146 11 -9661 11 l-935 0 -12 -156z m11273 80 c4406 -3 8011 -7 8012 -8 1 -1
18 -76 38 -167 93 -430 208 -767 358 -1045 350 -650 942 -1028 1822 -1165 77
-11 145 -23 151 -24 12 -3 7 -7045 -5 -7056 -3 -4 -53 -17 -111 -29 -398 -84
-798 -251 -1100 -458 -180 -124 -401 -331 -542 -507 -291 -364 -508 -857 -635
-1440 l-9 -40 -1749 3 c-963 2 -3489 7 -5615 12 -2126 5 -5539 12 -7585 15
-2046 3 -3829 8 -3961 11 l-242 6 -6 62 c-10 91 -62 341 -97 469 -195 704
-611 1214 -1234 1513 -233 112 -448 181 -728 235 -89 17 -167 33 -173 35 -19
4 -22 263 -44 3489 -11 1694 -21 3210 -22 3369 l-3 290 60 17 c33 9 112 31
175 49 1099 304 1721 859 1946 1735 48 188 94 481 94 604 l0 43 1598 -6 c878
-3 5202 -9 9607 -12z"/>
<path d="M21499 9656 c-3 -3 15 -6369 20 -7084 l1 -143 28 3 27 3 0 400 c0
1405 -17 6757 -21 6788 -5 30 -10 37 -28 37 -13 0 -25 -2 -27 -4z"/>
<path d="M2376 9618 c-9 -44 -26 -7152 -17 -7161 5 -5 17 -7 27 -5 18 3 19 37
25 898 4 492 8 2108 10 3590 l4 2695 -22 3 c-17 2 -24 -3 -27 -20z"/>
</g>
</svg>
