<svg viewBox="0 0 1800 723" xmlns="http://www.w3.org/2000/svg">
<rect width="100%" height="100%" fill="#FFFFFF" />
<path stroke="#000000" stroke-width="40" d="M20 568L20 0M280 568L280 0M460 568L460 0M520 568L520 0M620 568L620 0M680 568L680 0M740 568L740 0M840 568L840 0M940 568L940 0M1120 568L1120 0M1180 568L1180 0M1280 568L1280 0M1440 568L1440 0M1560 568L1560 0M1780 568L1780 0" />
<path stroke="#000000" stroke-width="20" d="M70 568L70 0M230 568L230 0M890 568L890 0M1330 568L1330 0M1370 568L1370 0M1730 568L1730 0" />
<path stroke="#000000" stroke-width="60" d="M150 568L150 0M370 568L370 0M1030 568L1030 0M1670 568L1670 0" />
<path d="M309.85 628.30Q307.50 625.87 307.50 622.74Q307.50 619.10 309.85 617.36L342.94 590.11Q345.29 588.20 348.19 588.20L353.97 588.20Q357.23 588.20 359.58 590.63Q362.11 592.88 362.11 596.01L362.11 714.06Q362.11 717.18 359.58 719.61Q357.23 721.87 353.97 721.87Q350.72 721.87 348.19 719.61Q345.83 717.35 345.83 714.06L345.83 608.33L321.06 628.65Q318.71 630.56 315.64 630.56Q312.20 630.56 309.85 628.30ZM435.32 610.07Q432.97 607.64 432.97 604.69Q432.97 600.35 436.40 598.09Q452.86 587.68 473.29 587.68Q489.75 587.68 500.78 597.75Q511.99 607.64 511.99 623.78Q511.99 630.21 509.64 636.11Q507.29 642.19 504.21 646.01Q501.32 649.82 495.53 654.51Q489.75 659.20 486.67 661.28Q483.78 663.37 477.45 667.36Q470.58 671.70 467.51 673.95Q464.43 676.21 460.09 680.73Q455.75 685.07 453.76 690.62Q451.77 696.00 451.41 703.47L451.41 704.33L504.94 704.33Q508.37 704.33 510.72 706.76Q513.08 709.02 513.08 712.15Q513.08 715.27 510.54 717.70Q508.19 719.96 504.94 719.96L443.09 719.96Q439.84 719.96 437.31 717.70Q434.96 715.27 434.96 712.15L434.96 708.50Q434.96 694.96 436.76 689.06Q439.84 678.64 448.34 670.48Q456.84 662.15 469.13 654.16Q486.13 643.23 490.65 636.98Q495.72 630.73 495.72 623.78Q495.72 614.58 489.02 608.86Q482.70 603.30 473.29 603.30Q457.02 603.30 445.81 610.94Q443.82 612.33 441.10 612.33Q437.85 612.33 435.32 610.07ZM560.69 715.79Q556.89 713.01 556.89 708.85Q556.89 705.55 559.24 703.29Q561.77 700.86 565.03 700.86Q566.11 700.86 568.10 701.56Q579.68 706.59 592.34 706.59Q606.08 706.59 615.48 699.99Q625.07 693.22 625.79 680.38L625.79 678.64Q625.79 669.79 620.00 663.54Q614.58 657.46 606.62 654.86Q598.85 652.43 589.26 652.43Q586.19 652.43 583.84 650.17Q581.49 647.74 581.49 644.44Q581.49 641.32 583.11 639.58L616.39 604.17L565.57 604.17Q562.32 604.17 559.79 601.91Q557.43 599.48 557.43 596.18Q557.43 592.88 559.79 590.63Q562.14 588.37 565.57 588.37L629.41 588.37Q632.66 588.37 635.01 590.80Q637.54 593.06 637.54 596.18L637.54 602.43Q637.54 605.21 635.01 607.64L605.90 638.37L607.34 638.71Q622.72 642.53 632.48 652.78Q642.06 663.02 642.06 678.47L642.06 681.25Q641.16 700.17 626.69 711.28Q612.59 722.39 592.34 722.39Q587.27 722.39 582.21 721.87Q577.15 721.35 570.82 720.13Q564.49 718.74 560.69 715.79ZM691.85 628.30Q689.50 625.87 689.50 622.74Q689.50 619.10 691.85 617.36L724.94 590.11Q727.29 588.20 730.19 588.20L735.97 588.20Q739.23 588.20 741.58 590.63Q744.11 592.88 744.11 596.01L744.11 714.06Q744.11 717.18 741.58 719.61Q739.23 721.87 735.97 721.87Q732.72 721.87 730.19 719.61Q727.83 717.35 727.83 714.06L727.83 608.33L703.06 628.65Q700.71 630.56 697.64 630.56Q694.20 630.56 691.85 628.30ZM815.69 715.79Q811.89 713.01 811.89 708.85Q811.89 705.55 814.24 703.29Q816.77 700.86 820.03 700.86Q821.11 700.86 823.10 701.56Q834.68 706.59 847.34 706.59Q861.08 706.59 870.48 699.99Q880.07 693.22 880.79 680.38L880.79 678.64Q880.79 669.79 875.00 663.54Q869.58 657.46 861.62 654.86Q853.85 652.43 844.26 652.43Q841.19 652.43 838.84 650.17Q836.49 647.74 836.49 644.44Q836.49 641.32 838.11 639.58L871.39 604.17L820.57 604.17Q817.32 604.17 814.79 601.91Q812.43 599.48 812.43 596.18Q812.43 592.88 814.79 590.63Q817.14 588.37 820.57 588.37L884.41 588.37Q887.66 588.37 890.01 590.80Q892.54 593.06 892.54 596.18L892.54 602.43Q892.54 605.21 890.01 607.64L860.90 638.37L862.34 638.71Q877.72 642.53 887.48 652.78Q897.06 663.02 897.06 678.47L897.06 681.25Q896.16 700.17 881.69 711.28Q867.59 722.39 847.34 722.39Q842.27 722.39 837.21 721.87Q832.15 721.35 825.82 720.13Q819.49 718.74 815.69 715.79ZM946.85 628.30Q944.50 625.87 944.50 622.74Q944.50 619.10 946.85 617.36L979.94 590.11Q982.29 588.20 985.19 588.20L990.97 588.20Q994.23 588.20 996.58 590.63Q999.11 592.88 999.11 596.01L999.11 714.06Q999.11 717.18 996.58 719.61Q994.23 721.87 990.97 721.87Q987.72 721.87 985.19 719.61Q982.83 717.35 982.83 714.06L982.83 608.33L958.06 628.65Q955.71 630.56 952.64 630.56Q949.20 630.56 946.85 628.30ZM1074.85 628.30Q1072.50 625.87 1072.50 622.74Q1072.50 619.10 1074.85 617.36L1107.94 590.11Q1110.29 588.20 1113.19 588.20L1118.97 588.20Q1122.23 588.20 1124.58 590.63Q1127.11 592.88 1127.11 596.01L1127.11 714.06Q1127.11 717.18 1124.58 719.61Q1122.23 721.87 1118.97 721.87Q1115.72 721.87 1113.19 719.61Q1110.83 717.35 1110.83 714.06L1110.83 608.33L1086.06 628.65Q1083.71 630.56 1080.64 630.56Q1077.20 630.56 1074.85 628.30ZM1200.32 610.07Q1197.97 607.64 1197.97 604.69Q1197.97 600.35 1201.40 598.09Q1217.86 587.68 1238.29 587.68Q1254.75 587.68 1265.78 597.75Q1276.99 607.64 1276.99 623.78Q1276.99 630.21 1274.64 636.11Q1272.29 642.19 1269.21 646.01Q1266.32 649.82 1260.53 654.51Q1254.75 659.20 1251.67 661.28Q1248.78 663.37 1242.45 667.36Q1235.58 671.70 1232.51 673.95Q1229.43 676.21 1225.09 680.73Q1220.75 685.07 1218.76 690.62Q1216.77 696.00 1216.41 703.47L1216.41 704.33L1269.94 704.33Q1273.37 704.33 1275.72 706.76Q1278.08 709.02 1278.08 712.15Q1278.08 715.27 1275.54 717.70Q1273.19 719.96 1269.94 719.96L1208.09 719.96Q1204.84 719.96 1202.31 717.70Q1199.96 715.27 1199.96 712.15L1199.96 708.50Q1199.96 694.96 1201.76 689.06Q1204.84 678.64 1213.34 670.48Q1221.84 662.15 1234.13 654.16Q1251.13 643.23 1255.65 636.98Q1260.72 630.73 1260.72 623.78Q1260.72 614.58 1254.02 608.86Q1247.70 603.30 1238.29 603.30Q1222.02 603.30 1210.81 610.94Q1208.82 612.33 1206.10 612.33Q1202.85 612.33 1200.32 610.07ZM1325.69 715.79Q1321.89 713.01 1321.89 708.85Q1321.89 705.55 1324.24 703.29Q1326.77 700.86 1330.03 700.86Q1331.11 700.86 1333.10 701.56Q1344.68 706.59 1357.34 706.59Q1371.08 706.59 1380.48 699.99Q1390.07 693.22 1390.79 680.38L1390.79 678.64Q1390.79 669.79 1385.00 663.54Q1379.58 657.46 1371.62 654.86Q1363.85 652.43 1354.26 652.43Q1351.19 652.43 1348.84 650.17Q1346.49 647.74 1346.49 644.44Q1346.49 641.32 1348.11 639.58L1381.39 604.17L1330.57 604.17Q1327.32 604.17 1324.79 601.91Q1322.43 599.48 1322.43 596.18Q1322.43 592.88 1324.79 590.63Q1327.14 588.37 1330.57 588.37L1394.41 588.37Q1397.66 588.37 1400.01 590.80Q1402.54 593.06 1402.54 596.18L1402.54 602.43Q1402.54 605.21 1400.01 607.64L1370.90 638.37L1372.34 638.71Q1387.72 642.53 1397.48 652.78Q1407.06 663.02 1407.06 678.47L1407.06 681.25Q1406.16 700.17 1391.69 711.28Q1377.59 722.39 1357.34 722.39Q1352.27 722.39 1347.21 721.87Q1342.15 721.35 1335.82 720.13Q1329.49 718.74 1325.69 715.79ZM1456.85 628.30Q1454.50 625.87 1454.50 622.74Q1454.50 619.10 1456.85 617.36L1489.94 590.11Q1492.29 588.20 1495.19 588.20L1500.97 588.20Q1504.23 588.20 1506.58 590.63Q1509.11 592.88 1509.11 596.01L1509.11 714.06Q1509.11 717.18 1506.58 719.61Q1504.23 721.87 1500.97 721.87Q1497.72 721.87 1495.19 719.61Q1492.83 717.35 1492.83 714.06L1492.83 608.33L1468.06 628.65Q1465.71 630.56 1462.64 630.56Q1459.20 630.56 1456.85 628.30Z" fill="#000000" />
</svg>
